<svg xmlns="http://www.w3.org/2000/svg" viewBox="0 0 100 100"><path d="M45.2886 28.5622H54.8855C56.146 28.5618 57.3942 28.8097 58.5589 29.2918C59.7236 29.7739 60.7819 30.4807 61.6734 31.3719C62.5649 32.2631 63.2721 33.3212 63.7545 34.4857C64.237 35.6502 64.4854 36.8984 64.4854 38.159C64.4854 39.4195 64.237 40.6677 63.7545 41.8322C63.2721 42.9967 62.5649 44.0548 61.6734 44.946C60.7819 45.8372 59.7236 46.544 58.5589 47.0261C57.3942 47.5082 56.146 47.7562 54.8855 47.7558H45.2886V28.5622Z" fill="url(#paint0_linear_46_228)"></path><path fill-rule="evenodd" clip-rule="evenodd" d="M95.6179 64.2846C93.7629 60.442 94.4276 57.1006 97.612 54.2603C100.796 51.4203 100.796 48.5802 97.612 45.74C94.4275 42.8997 93.7628 39.5583 95.6179 35.7157C97.4731 31.8733 96.3862 29.2493 92.3573 27.8438C88.3285 26.4386 86.4358 23.6059 86.6792 19.3458C86.9227 15.0856 84.9143 13.0774 80.6541 13.3211C76.3941 13.5648 73.5615 11.6719 72.1565 7.6426C70.7507 3.61407 68.1268 2.52735 64.2846 4.38243C60.442 6.23739 57.1006 5.57267 54.2603 2.38829C51.4203 -0.796096 48.5802 -0.796096 45.74 2.38829C42.8997 5.5728 39.5583 6.23752 35.7157 4.38243C31.8733 2.52735 29.2493 3.61407 27.8438 7.6426C26.4386 11.6716 23.6059 13.5645 19.3458 13.3211C15.0856 13.0778 13.0774 15.086 13.3211 19.3458C13.5648 23.6057 11.6719 26.4384 7.6426 27.8438C3.61407 29.2492 2.52735 31.8731 4.38243 35.7157C6.23739 39.5583 5.57267 42.8997 2.38829 45.74C-0.796096 48.58 -0.796096 51.4201 2.38829 54.2603C5.5728 57.1006 6.23752 60.442 4.38243 64.2846C2.52735 68.127 3.61407 70.751 7.6426 72.1565C11.6716 73.5618 13.5645 76.3944 13.3211 80.6541C13.0778 84.9142 15.086 86.9225 19.3458 86.6792C23.6057 86.4357 26.4384 88.3284 27.8438 92.3573C29.2492 96.3861 31.8731 97.4729 35.7157 95.6179C39.5583 93.7629 42.8997 94.4276 45.74 97.612C48.58 100.796 51.4201 100.796 54.2603 97.612C57.1006 94.4275 60.442 93.7628 64.2846 95.6179C68.127 97.4731 70.751 96.3862 72.1565 92.3573C73.5618 88.3285 76.3944 86.4358 80.6541 86.6792C84.9142 86.9227 86.9225 84.9143 86.6792 80.6541C86.4357 76.3941 88.3284 73.5615 92.3573 72.1565C96.3861 70.7507 97.4729 68.1268 95.6179 64.2846ZM45.2886 52.2719H54.8855C58.6284 52.2719 62.2181 50.785 64.8648 48.1383C67.5115 45.4916 68.9984 41.9019 68.9984 38.159C68.9984 34.416 67.5115 30.8263 64.8648 28.1796C62.2181 25.5329 58.6284 24.046 54.8855 24.046H36.2564C35.6575 24.046 35.0831 24.2839 34.6597 24.7074C34.2362 25.1309 33.9983 25.7052 33.9983 26.3041C33.9983 26.903 34.2362 27.4773 34.6597 27.9008C35.0831 28.3243 35.6575 28.5622 36.2564 28.5622H40.7725V47.7558H36.2564C35.6575 47.7558 35.0831 47.9937 34.6597 48.4171C34.2362 48.8406 33.9983 49.4149 33.9983 50.0138C33.9983 50.6127 34.2362 51.187 34.6597 51.6105C35.0831 52.034 35.6575 52.2719 36.2564 52.2719H40.7725V61.3042H36.2564C35.6575 61.3042 35.0831 61.5421 34.6597 61.9655C34.2362 62.389 33.9983 62.9634 33.9983 63.5622C33.9983 64.1611 34.2362 64.7355 34.6597 65.1589C35.0831 65.5824 35.6575 65.8203 36.2564 65.8203H40.7725V78.2397C40.7729 78.8383 41.011 79.4123 41.4344 79.8354C41.8578 80.2586 42.432 80.4963 43.0306 80.4963C43.6292 80.4963 44.2033 80.2586 44.6267 79.8354C45.0502 79.4123 45.2882 78.8383 45.2886 78.2397V65.8203H54.8855C55.4843 65.8203 56.0587 65.5824 56.4822 65.1589C56.9056 64.7355 57.1435 64.1611 57.1435 63.5622C57.1435 62.9634 56.9056 62.389 56.4822 61.9655C56.0587 61.5421 55.4843 61.3042 54.8855 61.3042H45.2886V52.2719Z" fill="url(#paint1_linear_46_228)"></path><defs><linearGradient id="paint0_linear_46_228" x1="50" y1="0" x2="50" y2="100" gradientUnits="userSpaceOnUse"><stop stop-color="#FFFFFF"></stop><stop offset="0" stop-color="#FFFFFF"></stop><stop offset="1" stop-color="#DDDDDD"></stop></linearGradient><linearGradient id="paint1_linear_46_228" x1="50" y1="0" x2="50" y2="100" gradientUnits="userSpaceOnUse"><stop stop-color="#FFFFFF"></stop><stop offset="0" stop-color="#FFFFFF"></stop><stop offset="1" stop-color="#DDDDDD"></stop></linearGradient></defs></svg>
